<svg version="1.1" xmlns="http://www.w3.org/2000/svg" xmlns:xlink="http://www.w3.org/1999/xlink" x="0px" y="0px"
	 viewBox="0 0 500 398" enable-background="new 0 0 500 398" xml:space="preserve">
<g id="Layer_1" display="none">
	<rect y="-50" display="inline" fill="#FFFFFF" stroke="#000000" stroke-miterlimit="10" width="500" height="500"/>
</g>
<g id="Layer_3">
	<g>
		<path fill="none" stroke="#A1A1A3" stroke-width="3" stroke-miterlimit="10" d="M370.6,32.9v36.4c0,0.8-0.7,1.5-1.5,1.5h-0.5
			c-0.8,0-1.5-0.7-1.5-1.5v293.9c0,4.2-3.3,7.7-7.5,8h0.1v10.5c0,1.4-0.9,2.5-2.2,2.9h0v3.8h-35.4v-3.7H181.6v3.7h-35.4v-3.8h0.2
			c-2.2-0.5-3.9-2.5-3.9-4.9v-8.5h0.1c-4.2-0.3-7.5-3.8-7.5-8v-332c0-4.4,3.6-8,8-8h216c4.4,0,8,3.6,8,8v1.7c0-0.8,0.7-1.5,1.5-1.5
			h0.5C370,31.4,370.6,32.1,370.6,32.9z"/>
		<path fill="none" stroke="#A1A1A3" stroke-width="3" stroke-miterlimit="10" d="M500.3,20.9v244.7l-13.4,1.3l-116-11.6V29
			c0-3.2,2.6-5.8,5.8-5.8l104.4-11.6c1.1,0,2.2,0.3,3.1,0.9c0.5,1,2.7,3.6,2.7,6.1v-1.2c0-2.1-1.1-3.9-2.7-4.9
			c-0.1-0.2-0.2-0.3-0.1-0.4c0,0,0.1-0.1,0.1-0.1l15.3,3.1C500,15.1,500.3,17.7,500.3,20.9z"/>
		<path fill="none" stroke="#A1A1A3" stroke-width="3" stroke-miterlimit="10" d="M134,32.9v36.4c0,0.8-0.7,1.5-1.5,1.5H132
			c-0.8,0-1.5-0.7-1.5-1.5V32.9c0-0.8,0.7-1.5,1.5-1.5h0.5C133.3,31.4,134,32.1,134,32.9z"/>
		<path fill="none" stroke="#A1A1A3" stroke-width="3" stroke-miterlimit="10" d="M130.2,29v226.2l-116,11.6l-13.3-1.3V20.9
			c0-3.2,0.3-5.8,0.7-5.8L16.9,12c0,0,0.1,0.1,0.1,0.1c0.1,0.1,0,0.2-0.1,0.4c0.9-0.6,2-0.9,3.1-0.9l104.4,11.6
			C127.6,23.2,130.2,25.8,130.2,29z"/>
		<line fill="none" stroke="#A1A1A3" stroke-width="3" stroke-miterlimit="10" x1="228" y1="371.2" x2="228" y2="371.1"/>
		<line fill="none" stroke="#A1A1A3" stroke-width="3" stroke-miterlimit="10" x1="274.4" y1="371.2" x2="274.4" y2="371.1"/>
		<line fill="none" stroke="#A1A1A3" stroke-width="3" stroke-miterlimit="10" x1="320.8" y1="371.2" x2="320.8" y2="371.1"/>
	</g>
</g>
<g id="Layer_2">
	<g>
		<path fill="#FFFFFF" stroke="#A1A1A3" stroke-width="2" stroke-linejoin="round" stroke-miterlimit="10" d="M358.6,371.2h-216
			c-4.4,0-8-3.6-8-8v-108h232v108C366.6,367.6,363,371.2,358.6,371.2z"/>
		<path fill="#E5EBF0" d="M366.6,255.2h-232v-220c0-6.6,5.4-12,12-12h208c6.6,0,12,5.4,12,12V255.2z"/>
		<path fill="#D6DFE5" stroke="#A1A1A3" stroke-miterlimit="10" d="M360,106v-5.6h-7.1V53.7c0-5.1-4.2-9.3-9.3-9.3H158.2
			c-5.1,0-9.3,4.2-9.3,9.3v46.6h-7.1v5.6h7.1v75.6h-7.1v5.6h7.1v67.9h204v-67.9h7.1v-5.6h-7.1V106H360z"/>
		<path fill="none" stroke="#A1A1A3" stroke-width="2" stroke-linejoin="round" stroke-miterlimit="10" d="M358.6,371.2h-216
			c-4.4,0-8-3.6-8-8v-332c0-4.4,3.6-8,8-8h216c4.4,0,8,3.6,8,8v332C366.6,367.6,363,371.2,358.6,371.2z"/>
		<path fill="#EDEDED" d="M330.1,274.8c0,0-0.4,4.4-8.4,5.2H177c0,0-7.9-1.4-5.9-5.2H330.1z"/>
		<path fill="none" stroke="#A1A1A3" stroke-linejoin="round" stroke-miterlimit="10" d="M330.1,274.8H171.1c-2.2,0-4-1.8-4-4v-1.3
			c0-2.2,1.8-4,4-4h159.1c2.2,0,4,1.8,4,4v1.3C334.1,273,332.3,274.8,330.1,274.8z"/>
		<g>
			<polygon fill="#A1A1A3" points="181,384.6 145.6,384.6 145.6,388.4 181,388.4 181,384.6 			"/>
		</g>
		<g>
			<polygon fill="#A1A1A3" points="357.1,384.6 321.7,384.6 321.7,388.4 357.1,388.4 357.1,384.6 			"/>
		</g>
		<rect x="141.9" y="100.4" fill="#FFFFFF" stroke="#A1A1A3" stroke-miterlimit="10" width="218.1" height="5.6"/>
		<rect x="141.9" y="181.6" fill="#FFFFFF" stroke="#A1A1A3" stroke-miterlimit="10" width="218.1" height="5.6"/>
		<g>
			<g>
				<g>
					<path fill="#A1A1A3" d="M321.7,53.1c-0.1,0.9-0.1,2,0.2,3.2c0.8,3.5,3.8,8.9,14,15.2c-3.3,1.4-13.4,6.6-13.3,18.5
						c-2.8-1.6-12.1-6.6-20.3-6.6c-2.5,0-4.7,0.5-6.5,1.5c2.4-3.8,6.1-10.6,5.3-16.9c-0.3-2.3-1.1-4.3-2.5-6c1.5,0.5,3.4,1,5.5,1
						C310,63,316,59.7,321.7,53.1 M323,50.7c-7.3,9.3-14,11.8-19.1,11.8c-4.2,0-7.2-1.7-8.3-2.4c12.3,9.1-2.4,27.4-2.4,27.4
						c2.3-2.6,5.5-3.6,9-3.6c9.4,0,20.8,7,20.8,7c-0.8-14.7,13.9-19.3,13.9-19.3C316.8,59.6,323,50.7,323,50.7L323,50.7z
						 M295.1,59.7c0,0,0.2,0.1,0.5,0.3C295.5,60,295.3,59.8,295.1,59.7L295.1,59.7z"/>
				</g>
				<g>
					<path fill="#A1A1A3" d="M319.6,58.6c0,0.6,0,1.2,0.2,1.9c0.8,3.6,4.1,7.2,9.8,10.8c-2.6,1.1-9.3,4.8-9.4,13
						c-2.2-1.3-8.7-4.7-14.4-4.7c-1.6,0-3.1,0.3-4.3,0.8c1.7-2.8,4.1-7.4,3.5-11.8c-0.2-1.5-0.7-2.8-1.6-4c1,0.3,2.2,0.6,3.6,0.6
						C311.4,65.4,315.6,63.1,319.6,58.6 M320.7,56.5c-5.2,6.7-10,8.4-13.6,8.4c-3,0-5.1-1.2-5.9-1.7c8.8,6.5-1.7,19.6-1.7,19.6
						c1.6-1.9,3.9-2.5,6.4-2.5c6.8,0,14.9,5,14.9,5c-0.6-10.5,10-13.8,10-13.8C316.3,62.8,320.7,56.5,320.7,56.5L320.7,56.5z
						 M300.8,62.9c0,0,0.1,0.1,0.4,0.3C301,63.1,300.9,63,300.8,62.9L300.8,62.9z"/>
				</g>
				<g>
					<path fill="#A1A1A3" d="M317.8,63.4c0,0.4,0,0.8,0.1,1.3c0.3,1.5,1.6,3.8,5.9,6.4c-1.5,0.6-5.6,2.8-5.6,7.8
						c-1.2-0.7-5.2-2.8-8.6-2.8c-1,0-1.9,0.2-2.7,0.6c1-1.6,2.5-4.5,2.2-7.1c-0.1-0.9-0.5-1.8-1-2.5c0.6,0.2,1.4,0.4,2.3,0.4
						C312.9,67.5,315.4,66.1,317.8,63.4 M318.4,62.3c-3.1,4-6,5-8.1,5c-1.8,0-3.1-0.7-3.5-1c5.2,3.9-1,11.7-1,11.7
						c1-1.1,2.3-1.5,3.8-1.5c4,0,8.9,3,8.9,3c-0.3-6.3,5.9-8.2,5.9-8.2C315.8,66.1,318.4,62.3,318.4,62.3L318.4,62.3z M306.6,66.1
						c0,0,0.1,0.1,0.2,0.1C306.7,66.2,306.6,66.2,306.6,66.1L306.6,66.1z"/>
				</g>
				<g>
					<path fill="#A1A1A3" d="M316.5,67c0,0.2,0,0.4,0,0.7c0.2,0.7,0.8,1.9,3,3.2c-0.7,0.3-2.9,1.4-2.8,4c-0.6-0.3-2.6-1.4-4.3-1.4
						c-0.5,0-1,0.1-1.4,0.3c0.5-0.8,1.3-2.3,1.1-3.6c-0.1-0.5-0.2-0.9-0.6-1.3c0.3,0.1,0.7,0.2,1.2,0.2
						C314,69.2,315.3,68.5,316.5,67 M316.7,66.6c-1.6,2-3,2.5-4.1,2.5c-0.9,0-1.5-0.4-1.8-0.5c2.6,1.9-0.5,5.8-0.5,5.8
						c0.5-0.6,1.2-0.8,1.9-0.8c2,0,4.4,1.5,4.4,1.5c-0.2-3.1,3-4.1,3-4.1C315.4,68.5,316.7,66.6,316.7,66.6L316.7,66.6z M310.8,68.5
						c0,0,0,0,0.1,0.1C310.9,68.5,310.8,68.5,310.8,68.5L310.8,68.5z"/>
				</g>
			</g>
			<polyline fill="none" stroke="#A1A1A3" stroke-width="0.25" stroke-linejoin="bevel" stroke-miterlimit="10" points="
				275.2,100.4 315.1,70.8 326.9,100.4 			"/>
			<polyline fill="none" stroke="#A1A1A3" stroke-width="0.25" stroke-linejoin="bevel" stroke-miterlimit="10" points="325.3,44.5 
				315.1,70.8 352.9,72.2 			"/>
			
				<line fill="none" stroke="#A1A1A3" stroke-width="0.25" stroke-linejoin="bevel" stroke-miterlimit="10" x1="268.3" y1="44.5" x2="315.1" y2="70.8"/>
		</g>
		<g>
			<g>
				<g>
					<path fill="#A1A1A3" d="M207.2,199.1c1.5,1.7,4.5,3.6,10.1,3.6c3.7,0,8-0.8,13-2.4c-1.1,3.4-3.7,14.5,5.5,22.2
						c-3.9,1.4-19.3,7.4-21.3,17c-1.7-5.8-6.2-16.7-15.7-16.9C203.1,220.1,209.4,214,207.2,199.1 M206.2,196.5
						c4.4,21.3-7.8,26.1-10.6,26.9c1-0.2,2-0.3,2.9-0.3c12.5,0,16.3,20,16.3,20c-1.9-12.8,22-20.4,22-20.4
						c-11.7-8.9-5.7-23.1-5.7-23.1c-5.9,2-10.4,2.7-13.8,2.7C207.7,202.2,206.2,196.5,206.2,196.5L206.2,196.5z M195.6,223.4
						c-0.2,0-0.4,0.1-0.6,0.1C195,223.5,195.2,223.5,195.6,223.4L195.6,223.4z"/>
				</g>
				<g>
					<path fill="#A1A1A3" d="M210,204.2c1.2,1.1,3.3,2.3,7,2.3c2.6,0,5.6-0.6,9.1-1.7c-0.8,2.7-2.3,10.2,3.9,15.6
						c-3.1,1.1-13.2,5.2-15,11.7c-1.3-4.2-4.5-11.2-10.7-11.7C207.3,218.6,211.4,214.1,210,204.2 M209.1,201.9
						c3.1,15.2-5.6,18.6-7.6,19.2c0.7-0.2,1.4-0.2,2.1-0.2c9,0,11.7,14.3,11.7,14.3c-1.3-9.1,15.7-14.6,15.7-14.6
						c-8.4-6.4-4.1-16.6-4.1-16.6c-4.2,1.4-7.4,2-9.9,2C210.2,206,209.1,201.9,209.1,201.9L209.1,201.9z M201.5,221.2
						c-0.1,0-0.3,0.1-0.4,0.1C201.1,221.3,201.2,221.3,201.5,221.2L201.5,221.2z"/>
				</g>
				<g>
					<path fill="#A1A1A3" d="M212.5,208.7c0.7,0.7,1.9,1.5,4.3,1.5c1.6,0,3.4-0.3,5.5-1c-0.5,1.5-1.5,6.1,2.3,9.4
						c-1.7,0.6-8,3.1-9,7.1c-0.8-2.5-2.7-6.9-6.6-7.1C210.8,217.4,213.4,214.8,212.5,208.7 M212.1,207.5c1.9,9.1-3.3,11.1-4.5,11.5
						c0.4-0.1,0.9-0.1,1.3-0.1c5.3,0,7,8.5,7,8.5c-0.8-5.4,9.4-8.7,9.4-8.7c-5-3.8-2.4-9.9-2.4-9.9c-2.5,0.9-4.4,1.2-5.9,1.2
						C212.7,209.9,212.1,207.5,212.1,207.5L212.1,207.5z M207.5,218.9c-0.1,0-0.2,0-0.2,0.1C207.3,219,207.4,219,207.5,218.9
						L207.5,218.9z"/>
				</g>
				<g>
					<path fill="#A1A1A3" d="M214.4,212c0.3,0.4,0.9,0.8,2.2,0.8c0.8,0,1.7-0.2,2.8-0.5c-0.2,0.7-0.8,3.1,1.2,4.7
						c-0.8,0.3-4.1,1.6-4.6,3.7c-0.4-1.2-1.3-3.6-3.4-3.6C213.5,216.6,214.9,215.3,214.4,212 M214.2,211.5c0.9,4.5-1.7,5.6-2.3,5.7
						c0.2-0.1,0.4-0.1,0.6-0.1c2.7,0,3.5,4.3,3.5,4.3c-0.4-2.7,4.7-4.4,4.7-4.4c-2.5-1.9-1.2-4.9-1.2-4.9c-1.3,0.4-2.2,0.6-2.9,0.6
						C214.5,212.7,214.2,211.5,214.2,211.5L214.2,211.5z M212,217.3c0,0-0.1,0-0.1,0C211.8,217.3,211.9,217.3,212,217.3L212,217.3z"
						/>
				</g>
			</g>
			<polyline fill="none" stroke="#A1A1A3" stroke-width="0.25" stroke-linejoin="bevel" stroke-miterlimit="10" points="
				213.7,255.1 216.4,215.6 337,255.6 			"/>
			<polyline fill="none" stroke="#A1A1A3" stroke-width="0.25" stroke-linejoin="bevel" stroke-miterlimit="10" points="
				201.3,187.7 216.4,215.6 242,187.7 			"/>
			
				<line fill="none" stroke="#A1A1A3" stroke-width="0.25" stroke-linejoin="bevel" stroke-miterlimit="10" x1="149" y1="240.3" x2="216.4" y2="215.6"/>
		</g>
		<g>
			<g>
				<path fill="#E5EBF0" stroke="#A1A1A3" stroke-width="2" stroke-linejoin="round" stroke-miterlimit="10" d="M129.6,255.2
					l-116,11.6V17.4c0-3.2,2.6-5.8,5.8-5.8l104.4,11.6c3.2,0,5.8,2.6,5.8,5.8V255.2z"/>
				<path fill="#FFFFFF" stroke="#A1A1A3" stroke-width="2" stroke-linejoin="round" stroke-miterlimit="10" d="M13.6,266.8
					l-13.3-1.3V20.9c0-3.2,0.3-5.8,0.7-5.8L16.3,12c0,0,0.1,0.1,0.1,0.1c0.3,0.3-2.8,3.5-2.8,6.5V266.8z"/>
			</g>
			<path fill="none" stroke="#A1A1A3" stroke-linejoin="round" stroke-miterlimit="10" d="M133.4,32.9v36.4c0,0.8-0.7,1.5-1.5,1.5
				h-0.5c-0.8,0-1.5-0.7-1.5-1.5V32.9c0-0.8,0.7-1.5,1.5-1.5h0.5C132.7,31.4,133.4,32.1,133.4,32.9z"/>
			<path fill="none" stroke="#A1A1A3" stroke-linejoin="round" stroke-miterlimit="10" d="M133.4,205.7v36.4c0,0.8-0.7,1.5-1.5,1.5
				h-0.5c-0.8,0-1.5-0.7-1.5-1.5v-36.4c0-0.8,0.7-1.5,1.5-1.5h0.5C132.7,204.2,133.4,204.8,133.4,205.7z"/>
			<line fill="none" stroke="#A1A1A3" stroke-linejoin="round" stroke-miterlimit="10" x1="121" y1="23.2" x2="121" y2="65.7"/>
			<line fill="none" stroke="#A1A1A3" stroke-linejoin="round" stroke-miterlimit="10" x1="121" y1="136.6" x2="121" y2="70.8"/>
			<line fill="none" stroke="#A1A1A3" stroke-linejoin="round" stroke-miterlimit="10" x1="121" y1="142.2" x2="121" y2="208.9"/>
			<line fill="none" stroke="#A1A1A3" stroke-linejoin="round" stroke-miterlimit="10" x1="121" y1="214.7" x2="121" y2="255.6"/>
			<polygon fill="#D6DFE5" points="120,70.8 119,81.3 14.7,64.8 			"/>
			<polygon fill="#D6DFE5" points="120,142.3 119,149.7 14.7,142.2 			"/>
			<polygon fill="#D6DFE5" points="120,214.8 120,219.3 14.7,219.8 			"/>
		</g>
		<path fill="#C8CCCD" stroke="#A1A1A3" stroke-width="2" stroke-linejoin="round" stroke-miterlimit="10" d="M356.2,384.7H146.9
			c-2.8,0-5-2.2-5-5v-8.6h217.3v10.6C359.2,383.4,357.9,384.7,356.2,384.7z"/>
		<polygon fill="#FFFFFF" stroke="#A1A1A3" stroke-miterlimit="10" points="125.6,66 14.7,59.2 14.7,64.8 125.6,70.8 		"/>
		<polygon fill="#FFFFFF" stroke="#A1A1A3" stroke-miterlimit="10" points="14.7,215.7 125.6,208.9 125.6,214.4 14.7,220.5 		"/>
		<rect x="14.7" y="136.6" fill="#FFFFFF" stroke="#A1A1A3" stroke-miterlimit="10" width="110.9" height="5.6"/>
		<g>
			<g>
				<path fill="#E5EBF0" stroke="#A1A1A3" stroke-width="2" stroke-linejoin="round" stroke-miterlimit="10" d="M370.4,255.2
					l116,11.6V17.4c0-3.2-2.6-5.8-5.8-5.8L376.2,23.2c-3.2,0-5.8,2.6-5.8,5.8V255.2z"/>
				<path fill="#FFFFFF" stroke="#A1A1A3" stroke-width="2" stroke-linejoin="round" stroke-miterlimit="10" d="M486.4,266.8
					l13.3-1.3V20.9c0-3.2-0.3-5.8-0.7-5.8L483.7,12c0,0-0.1,0.1-0.1,0.1c-0.3,0.3,2.8,3.5,2.8,6.5V266.8z"/>
			</g>
			<path fill="none" stroke="#A1A1A3" stroke-linejoin="round" stroke-miterlimit="10" d="M366.6,32.9v36.4c0,0.8,0.7,1.5,1.5,1.5
				h0.5c0.8,0,1.5-0.7,1.5-1.5V32.9c0-0.8-0.7-1.5-1.5-1.5h-0.5C367.3,31.4,366.6,32.1,366.6,32.9z"/>
			<path fill="none" stroke="#A1A1A3" stroke-linejoin="round" stroke-miterlimit="10" d="M366.6,205.7v36.4c0,0.8,0.7,1.5,1.5,1.5
				h0.5c0.8,0,1.5-0.7,1.5-1.5v-36.4c0-0.8-0.7-1.5-1.5-1.5h-0.5C367.3,204.2,366.6,204.8,366.6,205.7z"/>
			<line fill="none" stroke="#A1A1A3" stroke-linejoin="round" stroke-miterlimit="10" x1="379" y1="23.2" x2="379" y2="65.7"/>
			<line fill="none" stroke="#A1A1A3" stroke-linejoin="round" stroke-miterlimit="10" x1="379" y1="136.6" x2="379" y2="70.8"/>
			<line fill="none" stroke="#A1A1A3" stroke-linejoin="round" stroke-miterlimit="10" x1="379" y1="142.2" x2="379" y2="208.9"/>
			<line fill="none" stroke="#A1A1A3" stroke-linejoin="round" stroke-miterlimit="10" x1="379" y1="214.7" x2="379" y2="255.6"/>
			<polygon fill="#D6DFE5" points="380,70.8 381,81.3 485.3,64.8 			"/>
			<polygon fill="#D6DFE5" points="380,142.3 381,149.7 485.3,142.2 			"/>
			<polygon fill="#D6DFE5" points="380,214.8 380,219.3 485.3,219.8 			"/>
		</g>
		<polygon fill="#FFFFFF" stroke="#A1A1A3" stroke-miterlimit="10" points="374.4,66 485.3,59.2 485.3,64.8 374.4,70.8 		"/>
		<polygon fill="#FFFFFF" stroke="#A1A1A3" stroke-miterlimit="10" points="485.3,215.7 374.4,208.9 374.4,214.4 485.3,220.5 		"/>
		
			<rect x="374.4" y="136.6" transform="matrix(-1 -4.487400e-11 4.487400e-11 -1 859.7227 278.7713)" fill="#FFFFFF" stroke="#A1A1A3" stroke-miterlimit="10" width="110.9" height="5.6"/>
	</g>
	<line fill="none" stroke="#A1A1A3" stroke-linejoin="round" stroke-miterlimit="10" x1="141.9" y1="377.9" x2="359.2" y2="377.9"/>
	<line fill="none" stroke="#A1A1A3" stroke-linejoin="round" stroke-miterlimit="10" x1="181" y1="371.2" x2="181" y2="384.7"/>
	<line fill="none" stroke="#A1A1A3" stroke-linejoin="round" stroke-miterlimit="10" x1="227.4" y1="371.1" x2="227.4" y2="384.7"/>
	<line fill="none" stroke="#A1A1A3" stroke-linejoin="round" stroke-miterlimit="10" x1="273.8" y1="371.1" x2="273.8" y2="384.7"/>
	<line fill="none" stroke="#A1A1A3" stroke-linejoin="round" stroke-miterlimit="10" x1="320.2" y1="371.1" x2="320.2" y2="384.7"/>
</g>
<g id="Layer_4">
	<circle fill="#A1A1A3" cx="224.3" cy="308" r="4"/>
	<circle fill="#A1A1A3" cx="275.7" cy="308" r="4"/>
	<path fill="none" stroke="#A1A1A3" stroke-width="2" stroke-linejoin="round" stroke-miterlimit="10" d="M266.1,325.3h-32.2
		c-0.7,0-1.3-0.6-1.3-1.3v-0.5c0-0.7,0.6-1.3,1.3-1.3h32.2c0.7,0,1.3,0.6,1.3,1.3v0.5C267.4,324.7,266.8,325.3,266.1,325.3z"/>
</g>
</svg>